<svg xmlns="http://www.w3.org/2000/svg" viewBox="0 0 200 200">
    <rect width="200" height="200" rx="20" ry="20" style="fill:#000222;stroke-width:0" />
    <path
        d="M100.01 69.03c-17.03 0-30.76 13.74-30.76 30.77s13.73 30.77 30.76 30.77 30.76-13.74 30.76-30.77-13.73-30.77-30.76-30.77Zm0 50.77c-11 0-20-8.97-20-20s8.97-20 20-20 20 8.97 20 20-8.99 20-20 20Zm39.2-52.02c0 3.99-3.21 7.18-7.17 7.18s-7.17-3.21-7.17-7.18 3.21-7.18 7.17-7.18 7.17 3.21 7.17 7.18Zm20.37 7.28c-.46-9.61-2.65-18.13-9.69-25.14-7.01-7.02-15.53-9.21-25.14-9.69-9.91-.56-39.59-.56-49.5 0-9.58.46-18.1 2.65-25.14 9.67s-9.21 15.53-9.69 25.14c-.56 9.91-.56 39.6 0 49.51.46 9.61 2.65 18.13 9.69 25.14 7.04 7.02 15.53 9.21 25.14 9.69 9.91.56 39.59.56 49.5 0 9.61-.46 18.12-2.65 25.14-9.69 7.01-7.02 9.21-15.53 9.69-25.14.56-9.91.56-39.58 0-49.48Zm-12.8 60.11c-2.09 5.25-6.13 9.29-11.4 11.41-7.9 3.13-26.64 2.41-35.36 2.41s-27.49.7-35.36-2.41c-5.25-2.09-9.29-6.13-11.4-11.41-3.13-7.9-2.41-26.64-2.41-35.37s-.7-27.5 2.41-35.37c2.09-5.25 6.13-9.29 11.4-11.41 7.9-3.13 26.64-2.41 35.36-2.41s27.49-.7 35.36 2.41c5.25 2.09 9.29 6.13 11.4 11.41 3.13 7.9 2.41 26.64 2.41 35.37s.72 27.5-2.41 35.37Z"
        style="fill:#fff;stroke-width:0" />
</svg>